<svg id="visual" viewBox="0 0 960 100" width="960" height="100" xmlns="http://www.w3.org/2000/svg" xmlns:xlink="http://www.w3.org/1999/xlink" version="1.1"><rect x="0" y="0" width="960" height="100" fill="#000000"></rect><path d="M0 14L22.8 14.2C45.7 14.3 91.3 14.7 137 15.5C182.7 16.3 228.3 17.7 274 20.3C319.7 23 365.3 27 411.2 27.7C457 28.3 503 25.7 548.8 25.7C594.7 25.7 640.3 28.3 686 29.7C731.7 31 777.3 31 823 30C868.7 29 914.3 27 937.2 26L960 25L960 0L937.2 0C914.3 0 868.7 0 823 0C777.3 0 731.7 0 686 0C640.3 0 594.7 0 548.8 0C503 0 457 0 411.2 0C365.3 0 319.7 0 274 0C228.3 0 182.7 0 137 0C91.3 0 45.7 0 22.8 0L0 0Z" fill="#ce9e1a" stroke-linecap="round" stroke-linejoin="miter"></path></svg>